<?xml version="1.0" encoding="UTF-8"?>
<!DOCTYPE svg PUBLIC "-//W3C//DTD SVG 1.1//EN" "http://www.w3.org/Graphics/SVG/1.1/DTD/svg11.dtd">
<!-- Creator: CorelDRAW 2020 (64-Bit) -->
<svg xmlns="http://www.w3.org/2000/svg" xml:space="preserve" width="166.793mm" height="113.453mm" version="1.1" style="shape-rendering:geometricPrecision; text-rendering:geometricPrecision; image-rendering:optimizeQuality; fill-rule:evenodd; clip-rule:evenodd"
viewBox="0 0 16679.32 11345.32"
 xmlns:xlink="http://www.w3.org/1999/xlink"
 xmlns:xodm="http://www.corel.com/coreldraw/odm/2003">
 <defs>
  <style type="text/css">
   <![CDATA[
    .fil0 {fill:black;fill-rule:nonzero}
   ]]>
  </style>
 </defs>
 <g id="Слой_x0020_1">
  <metadata id="CorelCorpID_0Corel-Layer"/>
  <path class="fil0" d="M8974.45 431.2l7676.25 6321.72 -1862.25 0 0 278.13 1810.38 0c-1041.28,1431.05 -2081.13,2863.37 -3121.33,4295.24l-5021.04 0 0 -735.79 -278.12 0 0 735.79 -5003.12 0c-1043.63,-1430.97 -2085.28,-2863.29 -3127.46,-4295.24l1821.55 0 0 -278.13 -1853.51 0c2713.55,-2242.39 5426.92,-4484.95 8142.37,-6725.27l0 2663.04 -1306 1078.65 -309.19 -374.19 -2361.5 1951.29 308.83 373.66 -1789.59 1478.06 1508.67 2072.12 2420.75 0 0 586.87 3246.85 0 0 -586.87 2556.97 0 1517.05 -2087.43 -1779.96 -1465.9 306.13 -370.51 -2361.59 -1951.29 -309.28 374.28 -1327.52 -1093.23 0 -2653.23 495.66 408.23z"/>
 </g>
</svg>
