<?xml version="1.0" encoding="UTF-8"?>
<!DOCTYPE svg PUBLIC "-//W3C//DTD SVG 1.1//EN" "http://www.w3.org/Graphics/SVG/1.1/DTD/svg11.dtd">
<!-- Creator: CorelDRAW 2020 (64-Bit) -->
<svg xmlns="http://www.w3.org/2000/svg" xml:space="preserve" width="601.98mm" height="55.0332mm" version="1.1" style="shape-rendering:geometricPrecision; text-rendering:geometricPrecision; image-rendering:optimizeQuality; fill-rule:evenodd; clip-rule:evenodd"
viewBox="0 0 60198 5503.32"
 xmlns:xlink="http://www.w3.org/1999/xlink"
 xmlns:xodm="http://www.corel.com/coreldraw/odm/2003">
 <defs>
  <style type="text/css">
   <![CDATA[
    .fil1 {fill:black}
    .fil0 {fill:black;fill-rule:nonzero}
   ]]>
  </style>
 </defs>
 <g id="Слой_x0020_1">
  <metadata id="CorelCorpID_0Corel-Layer"/>
  <polygon class="fil0" points="49485.5,1708.1 50810.05,1.98 52975.9,1.98 50864.07,2672.04 53138.42,5492.02 50829.76,5492.02 49517.47,3840.55 47053.5,3840.55 47053.5,5492.02 45369.61,5492.02 45369.61,4000.46 45091.49,4000.46 45091.49,5492.02 44988.48,5492.02 44988.48,1.98 45067.72,1.98 45067.72,1403.59 45345.84,1403.59 45345.84,1.98 47053.5,1.98 47053.5,1708.1 "/>
  <path class="fil0" d="M45091.49 5492.02l-1818.94 0 -3760.78 -2569.58 0 2569.58 -2064.93 0c6.49,-1829.74 14.32,-3659.58 23.05,-5489.23l1991.37 -0.81 3758.26 2887.05 0 -2887.05 1848.2 0 0 1401.61 215.28 0 0 2596.87 -191.51 0 0 1491.56z"/>
  <polygon class="fil0" points="37463.14,1.98 37840.67,1.98 37840.67,1445.37 37463.14,1445.37 "/>
  <polygon class="fil0" points="32261.85,1445.37 32261.85,2023.41 35618.63,2023.41 35618.63,3462.93 32261.85,3462.93 32261.85,4051.15 37840.67,4051.15 37840.67,5492.02 30689.88,5492.02 30689.88,4001 30411.75,4001 30411.75,5492.02 30196.75,5492.02 30196.75,1.98 30411.75,1.98 30411.75,1454.92 30689.88,1454.92 30689.88,1.98 37185.01,1.98 37185.01,1445.37 "/>
  <polygon class="fil0" points="28427.78,5415.76 28427.78,3840.55 24720.12,3840.55 24720.12,5492.02 22655.01,5492.02 22655.01,1.98 24720.12,1.98 24720.12,1708.1 28427.78,1708.1 28427.78,1.98 30411.75,1.98 30411.75,1454.92 30491.26,1454.92 30491.26,4001 30411.75,4001 30411.75,5492.02 28427.78,5492.02 "/>
  <polygon class="fil0" points="22655.01,1.98 22949.53,1.98 22949.53,1445.37 22655.01,1445.37 "/>
  <polygon class="fil0" points="15660.62,4051.15 19015.69,4051.15 19015.69,3433.76 15660.62,3433.76 15382.5,3433.76 15113.28,3433.76 15113.28,1.98 15381.24,1.98 15381.24,1402.51 15659.36,1402.51 15659.36,1.98 22376.89,1.98 22376.89,1445.37 18995.89,1445.37 18995.89,1992.89 18995.89,2062.76 22655.01,2062.76 22655.01,1992.89 22949.53,1992.89 22949.53,5492.02 22654.47,5492.02 22654.47,3998.39 22376.35,3998.39 22376.35,5492.02 15660.62,5492.02 "/>
  <polygon class="fil0" points="15189.55,4051.15 15382.5,4051.15 15382.5,5492.02 15113.28,5492.02 15113.28,4051.15 "/>
  <polygon class="fil0" points="5802.58,5415.76 5802.58,3840.55 2094.93,3840.55 2094.93,5492.02 29.82,5492.02 29.82,4648.46 456.51,4648.46 456.51,1401.61 29.82,1401.61 29.82,1.98 2094.93,1.98 2094.93,1708.1 5802.58,1708.1 5802.58,1.98 7866.07,1.98 7866.07,5492.02 5802.58,5492.02 "/>
  <path class="fil1" d="M52340.69 1.98l7836.33 0 0 1399.63 -432.18 0 0 3246.85 432.18 0 0 843.56 -7836.33 0 0 -5490.04zm1841.45 1443.39l3707.65 0 0 2605.78 -3707.65 0 0 -2605.78z"/>
  <path class="fil1" d="M8234.59 1.98l7147.91 0 0 5490.04 -7147.91 0 0 -1495.07 -278.13 0 0 1495.07 -808.89 0 0 -5490.04 808.89 0 0 1400.53 278.13 0 0 -1400.53zm1732.77 1443.39l3707.66 0 0 2605.78 -3707.66 0 0 -2605.78z"/>
  <polygon class="fil0" points="37463.14,1.98 37840.67,1.98 37840.67,1445.37 37463.14,1445.37 "/>
 </g>
</svg>
